<?xml version="1.0" encoding="utf-8"?>
<!-- Generator: Adobe Illustrator 27.6.1, SVG Export Plug-In . SVG Version: 6.00 Build 0)  -->
<svg version="1.0" id="圖層_1" xmlns="http://www.w3.org/2000/svg" xmlns:xlink="http://www.w3.org/1999/xlink" x="0px" y="0px"
	 viewBox="0 0 146.2 36.5" style="enable-background:new 0 0 146.2 36.5;" xml:space="preserve">
<style type="text/css">
	.st0{fill:#FFFFFF;}
	.st1{fill-rule:evenodd;clip-rule:evenodd;fill:#FFFFFF;}
</style>
<g>
	<polygon class="st0" points="68,28.5 68,29.6 65.6,29.6 65.6,34.6 63.9,34.6 63.9,29.6 61.4,29.6 61.4,28.5 	"/>
	<path class="st0" d="M72,30.2c0.4,0.1,0.8,0.4,1,0.7c0.2,0.3,0.4,0.6,0.5,0.9c0,0.2,0.1,0.5,0.1,0.9h-4.4c0,0.5,0.2,0.8,0.6,1
		c0.2,0.1,0.5,0.2,0.9,0.2c0.4,0,0.7-0.1,0.9-0.2c0.1-0.1,0.2-0.2,0.3-0.3h1.6c0,0.3-0.2,0.5-0.6,0.8c-0.5,0.4-1.3,0.7-2.3,0.7
		c-0.8,0-1.5-0.2-2.1-0.6c-0.6-0.4-0.9-1-0.9-1.8c0-0.8,0.3-1.4,0.8-1.8c0.6-0.4,1.3-0.6,2.2-0.6C71.1,30,71.6,30,72,30.2
		 M69.6,31.2c-0.2,0.2-0.4,0.4-0.4,0.7h2.7c0-0.3-0.2-0.5-0.4-0.7C71.2,31,70.9,31,70.6,31C70.2,31,69.8,31,69.6,31.2"/>
	<path class="st0" d="M78,31.7c0-0.2-0.1-0.3-0.2-0.5C77.6,31.1,77.3,31,77,31c-0.5,0-0.9,0.2-1.1,0.6c-0.1,0.2-0.2,0.5-0.2,0.9
		c0,0.3,0.1,0.6,0.2,0.8c0.2,0.4,0.5,0.6,1.1,0.6c0.4,0,0.6-0.1,0.8-0.2c0.2-0.2,0.2-0.3,0.3-0.6h1.6c0,0.4-0.2,0.7-0.5,1
		c-0.5,0.5-1.2,0.8-2.2,0.8c-1,0-1.7-0.2-2.2-0.6c-0.5-0.4-0.7-1-0.7-1.7c0-0.8,0.3-1.4,0.8-1.8c0.5-0.4,1.2-0.6,2.1-0.6
		c0.8,0,1.4,0.1,1.9,0.4c0.5,0.3,0.8,0.7,0.9,1.4H78z"/>
	<path class="st0" d="M85.1,30.1c0.3,0.1,0.6,0.2,0.8,0.4c0.2,0.2,0.3,0.3,0.3,0.5c0,0.2,0.1,0.5,0.1,0.9v2.7h-1.6v-2.8
		c0-0.2-0.1-0.4-0.2-0.6C84.2,31.1,84,31,83.6,31c-0.4,0-0.7,0.1-0.9,0.3c-0.2,0.2-0.3,0.5-0.3,0.9v2.5h-1.6v-6.1h1.6v2.2
		c0.2-0.3,0.5-0.5,0.8-0.6c0.3-0.1,0.6-0.2,1-0.2C84.4,30,84.8,30,85.1,30.1"/>
	<path class="st0" d="M92.6,30.3c0.4,0.2,0.6,0.7,0.6,1.2v3.1h-1.6v-2.8c0-0.2,0-0.4-0.1-0.5c-0.2-0.2-0.5-0.4-0.9-0.4
		c-0.5,0-0.9,0.2-1.1,0.5c-0.1,0.2-0.2,0.4-0.2,0.7v2.5h-1.6v-4.5h1.5v0.7c0.2-0.2,0.4-0.4,0.6-0.5c0.3-0.2,0.7-0.3,1.2-0.3
		C91.6,30,92.2,30.1,92.6,30.3"/>
	<path class="st0" d="M99.7,34.1c-0.5,0.5-1.3,0.7-2.3,0.7c-1,0-1.8-0.2-2.3-0.7c-0.5-0.5-0.8-1-0.8-1.7c0-0.7,0.3-1.2,0.8-1.7
		c0.5-0.5,1.3-0.7,2.3-0.7c1,0,1.8,0.2,2.3,0.7c0.5,0.5,0.8,1.1,0.8,1.7C100.4,33,100.2,33.6,99.7,34.1 M98.4,33.4
		c0.3-0.2,0.4-0.6,0.4-1.1c0-0.5-0.1-0.8-0.4-1.1c-0.2-0.2-0.6-0.4-1.1-0.4c-0.5,0-0.8,0.1-1.1,0.4c-0.2,0.2-0.4,0.6-0.4,1.1
		c0,0.5,0.1,0.8,0.4,1.1c0.3,0.2,0.6,0.4,1.1,0.4C97.8,33.8,98.2,33.7,98.4,33.4"/>
	<rect x="101.6" y="28.5" class="st0" width="1.6" height="6.1"/>
	<path class="st0" d="M109.8,34.1c-0.5,0.5-1.3,0.7-2.3,0.7c-1,0-1.8-0.2-2.3-0.7c-0.5-0.5-0.8-1-0.8-1.7c0-0.7,0.3-1.2,0.8-1.7
		c0.5-0.5,1.3-0.7,2.3-0.7c1,0,1.8,0.2,2.3,0.7c0.5,0.5,0.8,1.1,0.8,1.7C110.6,33,110.3,33.6,109.8,34.1 M108.5,33.4
		c0.3-0.2,0.4-0.6,0.4-1.1c0-0.5-0.1-0.8-0.4-1.1c-0.2-0.2-0.6-0.4-1.1-0.4c-0.5,0-0.8,0.1-1.1,0.4c-0.3,0.2-0.4,0.6-0.4,1.1
		c0,0.5,0.1,0.8,0.4,1.1c0.2,0.2,0.6,0.4,1.1,0.4C107.9,33.8,108.3,33.7,108.5,33.4"/>
	<path class="st0" d="M114.7,30.1c0.4,0.1,0.7,0.3,0.9,0.7v-0.7h1.6v4.3c0,0.6-0.1,1-0.4,1.3c-0.4,0.5-1.3,0.8-2.6,0.8
		c-0.8,0-1.4-0.1-1.9-0.3c-0.5-0.2-0.8-0.6-0.8-1h1.7c0,0.1,0.1,0.2,0.2,0.3c0.2,0.1,0.5,0.2,0.9,0.2c0.6,0,0.9-0.1,1.1-0.4
		c0.1-0.2,0.2-0.5,0.2-0.9v-0.3c-0.2,0.2-0.3,0.3-0.5,0.4c-0.3,0.2-0.7,0.3-1.2,0.3c-0.8,0-1.4-0.2-1.9-0.6c-0.5-0.4-0.7-1-0.7-1.7
		c0-0.7,0.2-1.2,0.7-1.7c0.5-0.5,1.1-0.7,1.9-0.7C114.2,30,114.5,30,114.7,30.1 M115.2,33.3c0.3-0.2,0.4-0.5,0.4-1
		c0-0.4-0.1-0.8-0.4-1c-0.2-0.2-0.6-0.3-1-0.3c-0.6,0-0.9,0.2-1.1,0.6c-0.1,0.2-0.2,0.5-0.2,0.8c0,0.3,0.1,0.5,0.2,0.7
		c0.2,0.4,0.6,0.6,1.1,0.6C114.6,33.7,115,33.6,115.2,33.3"/>
	<path class="st0" d="M118.9,35.5l0.2,0c0.2,0,0.3,0,0.4,0c0.1,0,0.3,0,0.4-0.1c0.1,0,0.2-0.2,0.3-0.3c0.1-0.2,0.1-0.2,0.1-0.3
		l-2.2-4.7h1.8l1.3,3.4l1.3-3.4h1.7l-2.1,4.5c-0.4,0.9-0.7,1.4-0.9,1.6c-0.2,0.2-0.7,0.3-1.4,0.3h-0.3c-0.1,0-0.2,0-0.4,0V35.5z"/>
	<rect x="128.1" y="28.5" class="st0" width="1.7" height="6.1"/>
	<path class="st0" d="M136.2,30.3c0.4,0.2,0.6,0.7,0.6,1.2v3.1h-1.6v-2.8c0-0.2,0-0.4-0.1-0.5c-0.2-0.2-0.5-0.4-0.9-0.4
		c-0.5,0-0.9,0.2-1.1,0.5c-0.1,0.2-0.2,0.4-0.2,0.7v2.5h-1.6v-4.5h1.5v0.7c0.2-0.2,0.4-0.4,0.6-0.5c0.3-0.2,0.7-0.3,1.2-0.3
		C135.3,30,135.8,30.1,136.2,30.3"/>
	<path class="st0" d="M141.9,31.7c0-0.2-0.1-0.3-0.2-0.5c-0.2-0.2-0.5-0.3-0.8-0.3c-0.5,0-0.9,0.2-1.1,0.6c-0.1,0.2-0.2,0.5-0.2,0.9
		c0,0.3,0.1,0.6,0.2,0.8c0.2,0.4,0.5,0.6,1.1,0.6c0.4,0,0.6-0.1,0.8-0.2c0.2-0.2,0.2-0.3,0.3-0.6h1.6c0,0.4-0.2,0.7-0.5,1
		c-0.5,0.5-1.2,0.8-2.2,0.8c-1,0-1.7-0.2-2.2-0.6c-0.5-0.4-0.7-1-0.7-1.7c0-0.8,0.2-1.4,0.8-1.8c0.5-0.4,1.2-0.6,2.1-0.6
		c0.8,0,1.4,0.1,1.9,0.4c0.5,0.3,0.8,0.7,0.9,1.4H141.9z"/>
	<rect x="144.5" y="33.4" class="st0" width="1.7" height="1.2"/>
	<polygon class="st1" points="54.9,8.1 61.5,8.1 53.1,23.3 46.7,23.3 38.4,8.1 45.2,8.1 50,19.3 	"/>
	<path class="st1" d="M76.9,15.9c-0.4,0.2-0.8,0.3-1.2,0.4c-0.4,0.1-1,0.2-1.7,0.3l-1.4,0.2c-1.3,0.1-2.3,0.3-2.9,0.5
		c-1,0.4-1.5,0.9-1.5,1.7c0,0.7,0.3,1.2,0.9,1.5c0.6,0.3,1.3,0.4,2.2,0.4c1.4,0,2.6-0.3,3.8-0.8c1.2-0.5,1.8-1.4,1.8-2.7V15.9z
		 M73,14c1.2-0.1,2-0.2,2.5-0.3c0.9-0.2,1.4-0.6,1.4-1.1c0-0.6-0.3-1-1-1.3c-0.7-0.2-1.7-0.4-3-0.4c-1.5,0-2.6,0.2-3.2,0.7
		c-0.4,0.3-0.7,0.8-0.9,1.4h-6.1c0.1-1.3,0.7-2.4,1.8-3.3c1.7-1.3,4.5-2,8.6-2c2.7,0,5,0.3,7.1,1c2.1,0.7,3.1,1.9,3.1,3.7v7
		c0,0.5,0,1.1,0,1.8c0,0.5,0.2,0.9,0.4,1.1c0.2,0.2,0.5,0.3,0.9,0.5v0.6h-6.9c-0.2-0.3-0.3-0.6-0.4-0.9c-0.1-0.3-0.1-0.6-0.2-0.9
		c-0.9,0.6-1.9,1.1-3,1.5c-1.4,0.5-2.9,0.7-4.6,0.7c-2.2,0-4-0.4-5.4-1.2c-1.4-0.8-2.1-1.9-2.1-3.3c0-1.9,1.1-3.2,3.4-4.1
		c1.3-0.5,3.1-0.8,5.5-1L73,14z"/>
	<rect x="88.4" y="0.2" class="st1" width="6.3" height="23.1"/>
	<path class="st1" d="M105.9,8.1v9.2c0,0.9,0.2,1.5,0.5,2c0.5,0.8,1.6,1.2,3.2,1.2c2,0,3.4-0.5,4.1-1.6c0.4-0.6,0.6-1.4,0.6-2.4V8.1
		h6v15.2h-5.7v-2.1c-0.1,0-0.2,0.2-0.4,0.4c-0.2,0.2-0.5,0.4-0.8,0.6c-0.9,0.6-1.8,0.9-2.7,1.1c-0.9,0.2-1.9,0.3-3,0.3
		c-3.3,0-5.6-0.8-6.7-2.4c-0.6-0.9-1-2.2-1-3.9V8.1H105.9z"/>
	<path class="st1" d="M131.3,11.8c-0.8,0.6-1.3,1.4-1.5,2.3h9.8c-0.1-1.1-0.6-1.8-1.5-2.4c-0.9-0.5-2-0.8-3.4-0.8
		C133.3,10.9,132.2,11.2,131.3,11.8 M140.2,8.4c1.6,0.5,2.9,1.2,4,2.2c0.9,0.9,1.6,1.9,1.8,3.1c0.2,0.7,0.2,1.7,0.2,3h-16.6
		c0.1,1.5,0.8,2.6,2.3,3.2c0.9,0.4,1.9,0.6,3.2,0.6c1.3,0,2.4-0.2,3.2-0.7c0.4-0.2,0.8-0.6,1.2-1h6.5c-0.2,0.9-0.9,1.8-2.2,2.7
		c-2.1,1.5-5,2.2-8.7,2.2c-3.1,0-5.8-0.6-8.1-1.9c-2.4-1.2-3.5-3.3-3.5-6.1c0-2.6,1.1-4.6,3.2-6.1c2.1-1.4,4.9-2.1,8.3-2.1
		C136.8,7.7,138.6,7.9,140.2,8.4"/>
	<path class="st0" d="M38.8,21.1c0,0-2.5,0.3-5.9,0c3.8-6.5,4.2-13.5,0.2-17.7c-5.3-5.7-16.4-4-24.8,3.7C0,14.8-2.5,25.6,2.8,31.3
		c5.3,5.7,16.4,4,24.8-3.7c1.5-1.4,2.8-2.8,3.8-4.3c0.1,0,0.2,0,0.4-0.1h-4.9c-0.2-0.3-0.3-0.6-0.4-0.9c-0.1-0.3-0.1-0.6-0.2-0.9
		c-0.9,0.6-1.9,1.1-3,1.5c-1.4,0.5-2.9,0.7-4.6,0.7c-2.2,0-4-0.4-5.4-1.2c-1.4-0.8-2.1-1.9-2.1-3.3c0-1.9,1.2-3.2,3.4-4.1
		c1.3-0.5,3.1-0.8,5.6-1l2.2-0.2c1.2-0.1,2-0.2,2.5-0.4c0.9-0.2,1.4-0.6,1.4-1.1c0-0.6-0.3-1.1-1-1.3c-0.7-0.2-1.7-0.4-3-0.4
		c-1.5,0-2.6,0.2-3.2,0.7c-0.4,0.3-0.7,0.8-0.9,1.4h-6.1c0.1-1.3,0.7-2.4,1.8-3.3c1.7-1.3,4.5-2,8.6-2c2.7,0,5,0.3,7.1,1
		c2.1,0.7,3.1,1.9,3.1,3.7v7c0,0.5,0,1.1,0,1.8c0,0.5,0.2,0.9,0.4,1.1c0.2,0.2,0.5,0.3,0.9,0.5v0.2C37,22,38.8,21.1,38.8,21.1
		 M23.2,16.5l-1.4,0.2c-1.3,0.2-2.3,0.3-2.9,0.5c-1,0.4-1.5,0.9-1.5,1.7c0,0.7,0.3,1.2,0.9,1.5c0.6,0.3,1.3,0.4,2.2,0.4
		c1.4,0,2.6-0.2,3.8-0.8c1.2-0.5,1.8-1.4,1.8-2.7v-1.5c-0.4,0.2-0.8,0.3-1.2,0.4C24.5,16.3,23.9,16.4,23.2,16.5"/>
</g>
</svg>
