<svg id="圖層_1" data-name="圖層 1" xmlns="http://www.w3.org/2000/svg" viewBox="0 0 146.19 36.48"><defs><style>.cls-1{fill-rule:evenodd;}</style></defs><polygon points="67.98 28.48 67.98 29.58 65.58 29.58 65.58 34.58 63.88 34.58 63.88 29.58 61.38 29.58 61.38 28.48 67.98 28.48"/><path d="M72,30.2a1.83,1.83,0,0,1,1,.7,4.05,4.05,0,0,1,.5.9c0,.2.1.5.1.9H69.2a1,1,0,0,0,.6,1,2.12,2.12,0,0,0,1.8,0l.3-.3h1.6c0,.3-.2.5-.6.8a4.05,4.05,0,0,1-4.4.1,2,2,0,0,1-.9-1.8,2.2,2.2,0,0,1,.8-1.8,3.8,3.8,0,0,1,2.2-.6,2.2,2.2,0,0,1,1.4.1m-2.4,1a1,1,0,0,0-.4.7h2.7a1,1,0,0,0-.4-.7,2.35,2.35,0,0,0-1.9,0" transform="translate(-0.01 -0.02)"/><path d="M78,31.7c0-.2-.1-.3-.2-.5A1.88,1.88,0,0,0,77,31a1.15,1.15,0,0,0-1.1.6,2,2,0,0,0-.2.9,1.88,1.88,0,0,0,.2.8,1.06,1.06,0,0,0,1.1.6,1.55,1.55,0,0,0,.8-.2,1.14,1.14,0,0,0,.3-.6h1.6a1.39,1.39,0,0,1-.5,1,3,3,0,0,1-2.2.8,3.4,3.4,0,0,1-2.2-.6,2.06,2.06,0,0,1-.7-1.7,2.2,2.2,0,0,1,.8-1.8,3.28,3.28,0,0,1,2.1-.6,3.58,3.58,0,0,1,1.9.4,1.77,1.77,0,0,1,.9,1.4H78Z" transform="translate(-0.01 -0.02)"/><path d="M85.1,30.1a2,2,0,0,1,.8.4c.2.2.3.3.3.5s.1.5.1.9v2.7H84.7V31.8a1.42,1.42,0,0,0-.2-.6,2.39,2.39,0,0,0-.9-.2,1.06,1.06,0,0,0-1.2,1.2v2.5H80.8V28.6h1.6v2.2a1.56,1.56,0,0,1,.8-.6,3,3,0,0,1,1-.2,3.08,3.08,0,0,1,.9.1" transform="translate(-0.01 -0.02)"/><path d="M92.6,30.3a1.31,1.31,0,0,1,.6,1.2v3.1H91.6V31.8a.75.75,0,0,0-.1-.5,1.27,1.27,0,0,0-.9-.4,1.29,1.29,0,0,0-1.1.5,1.45,1.45,0,0,0-.2.7v2.5H87.7V30.1h1.5v.7a2.65,2.65,0,0,1,.6-.5A2.13,2.13,0,0,1,91,30a3.81,3.81,0,0,1,1.6.3" transform="translate(-0.01 -0.02)"/><path d="M99.7,34.1a4.13,4.13,0,0,1-4.6,0,2.21,2.21,0,0,1,0-3.4,4.13,4.13,0,0,1,4.6,0,2.46,2.46,0,0,1,.8,1.7,3,3,0,0,1-.8,1.7m-1.3-.7a1.25,1.25,0,0,0,.4-1.1,1.37,1.37,0,0,0-.4-1.1,1.6,1.6,0,0,0-1.1-.4,1.37,1.37,0,0,0-1.1.4,1.6,1.6,0,0,0-.4,1.1,1.37,1.37,0,0,0,.4,1.1,1.82,1.82,0,0,0,1.1.4,1.25,1.25,0,0,0,1.1-.4" transform="translate(-0.01 -0.02)"/><rect x="101.59" y="28.48" width="1.6" height="6.1"/><path d="M109.8,34.1a4.13,4.13,0,0,1-4.6,0,2.21,2.21,0,0,1,0-3.4,4.13,4.13,0,0,1,4.6,0,2.21,2.21,0,0,1,0,3.4m-1.3-.7a1.25,1.25,0,0,0,.4-1.1,1.37,1.37,0,0,0-.4-1.1,1.6,1.6,0,0,0-1.1-.4,1.37,1.37,0,0,0-1.1.4,1.25,1.25,0,0,0-.4,1.1,1.37,1.37,0,0,0,.4,1.1,1.6,1.6,0,0,0,1.1.4,1.25,1.25,0,0,0,1.1-.4" transform="translate(-0.01 -0.02)"/><path d="M114.7,30.1a1.27,1.27,0,0,1,.9.7v-.7h1.6v4.3a1.7,1.7,0,0,1-.4,1.3,3.34,3.34,0,0,1-2.6.8,5,5,0,0,1-1.9-.3,1.15,1.15,0,0,1-.8-1h1.7c0,.1.1.2.2.3a2,2,0,0,0,.9.2c.6,0,.9-.1,1.1-.4a2,2,0,0,0,.2-.9v-.3a1.76,1.76,0,0,1-.5.4,2.13,2.13,0,0,1-1.2.3,2.88,2.88,0,0,1-1.9-.6,2.06,2.06,0,0,1-.7-1.7,2.19,2.19,0,0,1,.7-1.7,2.49,2.49,0,0,1,1.9-.7,1.1,1.1,0,0,1,.8,0m.5,3.2a1.05,1.05,0,0,0,.4-1,1.16,1.16,0,0,0-.4-1,1.49,1.49,0,0,0-1-.3,1.06,1.06,0,0,0-1.1.6,1.88,1.88,0,0,0-.2.8,1.45,1.45,0,0,0,.2.7,1.37,1.37,0,0,0,2.1.2" transform="translate(-0.01 -0.02)"/><path d="M118.9,35.5h.6a.6.6,0,0,0,.4-.1c.1,0,.2-.2.3-.3s.1-.2.1-.3l-2.2-4.7h1.8l1.3,3.4,1.3-3.4h1.7l-2.1,4.5a6.13,6.13,0,0,1-.9,1.6,2.21,2.21,0,0,1-1.4.3h-.7v-1Z" transform="translate(-0.01 -0.02)"/><rect x="128.09" y="28.48" width="1.7" height="6.1"/><path d="M136.2,30.3a1.31,1.31,0,0,1,.6,1.2v3.1h-1.6V31.8a.75.75,0,0,0-.1-.5,1.27,1.27,0,0,0-.9-.4,1.29,1.29,0,0,0-1.1.5,1.45,1.45,0,0,0-.2.7v2.5h-1.6V30.1h1.5v.7a2.65,2.65,0,0,1,.6-.5,2.13,2.13,0,0,1,1.2-.3,3.51,3.51,0,0,1,1.6.3" transform="translate(-0.01 -0.02)"/><path d="M141.9,31.7c0-.2-.1-.3-.2-.5a1.14,1.14,0,0,0-.8-.3,1.15,1.15,0,0,0-1.1.6,2,2,0,0,0-.2.9,1.88,1.88,0,0,0,.2.8,1.06,1.06,0,0,0,1.1.6,1.55,1.55,0,0,0,.8-.2,1.14,1.14,0,0,0,.3-.6h1.6a1.39,1.39,0,0,1-.5,1,3,3,0,0,1-2.2.8,3.4,3.4,0,0,1-2.2-.6,2.06,2.06,0,0,1-.7-1.7,2,2,0,0,1,.8-1.8,3.28,3.28,0,0,1,2.1-.6,3.58,3.58,0,0,1,1.9.4,1.77,1.77,0,0,1,.9,1.4h-1.8Z" transform="translate(-0.01 -0.02)"/><rect x="144.49" y="33.38" width="1.7" height="1.2"/><polygon class="cls-1" points="54.88 8.08 61.48 8.08 53.09 23.28 46.69 23.28 38.38 8.08 45.19 8.08 49.98 19.28 54.88 8.08"/><path class="cls-1" d="M76.9,15.9a5.64,5.64,0,0,1-1.2.4c-.4.1-1,.2-1.7.3l-1.4.2a12.93,12.93,0,0,0-2.9.5c-1,.4-1.5.9-1.5,1.7a1.55,1.55,0,0,0,.9,1.5,4.81,4.81,0,0,0,2.2.4,9.57,9.57,0,0,0,3.8-.8,2.7,2.7,0,0,0,1.8-2.7ZM73,14a24.27,24.27,0,0,0,2.5-.3c.9-.2,1.4-.6,1.4-1.1a1.35,1.35,0,0,0-1-1.3,10.84,10.84,0,0,0-3-.4,5.23,5.23,0,0,0-3.2.7,2.84,2.84,0,0,0-.9,1.4H62.7a4.6,4.6,0,0,1,1.8-3.3c1.7-1.3,4.5-2,8.6-2a22.15,22.15,0,0,1,7.1,1c2.1.7,3.1,1.9,3.1,3.7v8.8a1.6,1.6,0,0,0,.4,1.1,3.6,3.6,0,0,0,.9.5v.6H77.7a3.55,3.55,0,0,1-.4-.9c-.1-.3-.1-.6-.2-.9a14,14,0,0,1-3,1.5,13.46,13.46,0,0,1-4.6.7,10.8,10.8,0,0,1-5.4-1.2A3.67,3.67,0,0,1,62,19.3c0-1.9,1.1-3.2,3.4-4.1a20.87,20.87,0,0,1,5.5-1Z" transform="translate(-0.01 -0.02)"/><rect x="88.39" y="0.18" width="6.3" height="23.1"/><path class="cls-1" d="M105.9,8.1v9.2a3.68,3.68,0,0,0,.5,2c.5.8,1.6,1.2,3.2,1.2,2,0,3.4-.5,4.1-1.6a4.27,4.27,0,0,0,.6-2.4V8.1h6V23.3h-5.7V21.2c-.1,0-.2.2-.4.4a5.55,5.55,0,0,1-.8.6,7.71,7.71,0,0,1-2.7,1.1,13.86,13.86,0,0,1-3,.3c-3.3,0-5.6-.8-6.7-2.4a7,7,0,0,1-1-3.9V8.1Z" transform="translate(-0.01 -0.02)"/><path class="cls-1" d="M131.3,11.8a3.89,3.89,0,0,0-1.5,2.3h9.8a3,3,0,0,0-1.5-2.4,6.83,6.83,0,0,0-3.4-.8,5.93,5.93,0,0,0-3.4.9m8.9-3.4a10.35,10.35,0,0,1,4,2.2,5.81,5.81,0,0,1,1.8,3.1,12.36,12.36,0,0,1,.2,3H129.6a3.43,3.43,0,0,0,2.3,3.2,7.62,7.62,0,0,0,3.2.6,6.08,6.08,0,0,0,3.2-.7,5.3,5.3,0,0,0,1.2-1H146a4.8,4.8,0,0,1-2.2,2.7c-2.1,1.5-5,2.2-8.7,2.2a16.17,16.17,0,0,1-8.1-1.9,6.27,6.27,0,0,1-3.5-6.1,7.12,7.12,0,0,1,3.2-6.1A14.8,14.8,0,0,1,135,7.5a28.21,28.21,0,0,1,5.2.9" transform="translate(-0.01 -0.02)"/><path d="M38.8,21.1a31.53,31.53,0,0,1-5.9,0c3.8-6.5,4.2-13.5.2-17.7C27.8-2.3,16.7-.6,8.3,7.1S-2.5,25.6,2.8,31.3s16.4,4,24.8-3.7a25,25,0,0,0,3.8-4.3.76.76,0,0,0,.4-.1H26.9a3.55,3.55,0,0,1-.4-.9c-.1-.3-.1-.6-.2-.9a14,14,0,0,1-3,1.5,13.46,13.46,0,0,1-4.6.7,10.8,10.8,0,0,1-5.4-1.2,3.67,3.67,0,0,1-2.1-3.3c0-1.9,1.2-3.2,3.4-4.1a20.93,20.93,0,0,1,5.6-1l2.2-.2a9.84,9.84,0,0,0,2.5-.4c.9-.2,1.4-.6,1.4-1.1a1.27,1.27,0,0,0-1-1.3,10.84,10.84,0,0,0-3-.4,5.23,5.23,0,0,0-3.2.7,2.84,2.84,0,0,0-.9,1.4H12.1a4.6,4.6,0,0,1,1.8-3.3c1.7-1.3,4.5-2,8.6-2a22.15,22.15,0,0,1,7.1,1c2.1.7,3.1,1.9,3.1,3.7v8.8a1.6,1.6,0,0,0,.4,1.1,3.6,3.6,0,0,0,.9.5v.2a23.87,23.87,0,0,0,4.8-1.6M23.2,16.5l-1.4.2a23.54,23.54,0,0,0-2.9.5c-1,.4-1.5.9-1.5,1.7a1.55,1.55,0,0,0,.9,1.5,4.81,4.81,0,0,0,2.2.4,8.12,8.12,0,0,0,3.8-.8,2.7,2.7,0,0,0,1.8-2.7V15.8a5.64,5.64,0,0,1-1.2.4c-.4.1-1,.2-1.7.3" transform="translate(-0.01 -0.02)"/></svg>